<mxfile host="app.diagrams.net" modified="2022-08-01T13:09:17.577Z" agent="5.0 (Windows NT 10.0; Win64; x64) AppleWebKit/537.36 (KHTML, like Gecko) Chrome/103.0.0.0 Safari/537.36" etag="qo2RJd_A1DPxrr9M7Skz" version="20.2.2" type="github">
  <diagram id="LK6LhQ9Zi_iGPimdhOZf" name="Page-1">
    <mxGraphModel dx="1822" dy="1154" grid="1" gridSize="10" guides="1" tooltips="1" connect="1" arrows="1" fold="1" page="0" pageScale="1" pageWidth="827" pageHeight="1169" math="0" shadow="0">
      <root>
        <mxCell id="0" />
        <mxCell id="1" parent="0" />
        <mxCell id="2Uv1LT-W6fwnL4_BVbzs-71" value="" style="rounded=0;whiteSpace=wrap;html=1;dashed=1;labelBackgroundColor=none;fontSize=11;strokeColor=none;" vertex="1" parent="1">
          <mxGeometry x="-150" y="-45" width="820" height="475" as="geometry" />
        </mxCell>
        <mxCell id="2Uv1LT-W6fwnL4_BVbzs-59" style="edgeStyle=orthogonalEdgeStyle;rounded=0;orthogonalLoop=1;jettySize=auto;html=1;exitX=0.5;exitY=1;exitDx=0;exitDy=0;entryX=0;entryY=0.5;entryDx=0;entryDy=0;dashed=1;fontSize=11;" edge="1" parent="1" source="2Uv1LT-W6fwnL4_BVbzs-58" target="2Uv1LT-W6fwnL4_BVbzs-1">
          <mxGeometry relative="1" as="geometry">
            <mxPoint x="-40" y="180" as="targetPoint" />
          </mxGeometry>
        </mxCell>
        <mxCell id="2Uv1LT-W6fwnL4_BVbzs-58" value="" style="rounded=1;whiteSpace=wrap;html=1;fontSize=11;dashed=1;" vertex="1" parent="1">
          <mxGeometry x="-140" y="10" width="100" height="130" as="geometry" />
        </mxCell>
        <mxCell id="2Uv1LT-W6fwnL4_BVbzs-60" style="edgeStyle=orthogonalEdgeStyle;rounded=0;orthogonalLoop=1;jettySize=auto;html=1;exitX=0.5;exitY=0;exitDx=0;exitDy=0;entryX=0;entryY=0.5;entryDx=0;entryDy=0;dashed=1;fontSize=11;" edge="1" parent="1" source="2Uv1LT-W6fwnL4_BVbzs-57" target="2Uv1LT-W6fwnL4_BVbzs-1">
          <mxGeometry relative="1" as="geometry">
            <mxPoint x="-40" y="180" as="targetPoint" />
          </mxGeometry>
        </mxCell>
        <mxCell id="2Uv1LT-W6fwnL4_BVbzs-57" value="" style="rounded=1;whiteSpace=wrap;html=1;fontSize=11;dashed=1;" vertex="1" parent="1">
          <mxGeometry x="-140" y="220" width="100" height="60" as="geometry" />
        </mxCell>
        <mxCell id="2Uv1LT-W6fwnL4_BVbzs-16" value="&lt;div style=&quot;font-size: 11px;&quot;&gt;Project Charter&lt;/div&gt;&lt;div style=&quot;font-size: 11px;&quot;&gt;Stakeholder Register&lt;/div&gt;" style="edgeStyle=orthogonalEdgeStyle;rounded=0;orthogonalLoop=1;jettySize=auto;html=1;exitX=1;exitY=0.25;exitDx=0;exitDy=0;entryX=0;entryY=0.25;entryDx=0;entryDy=0;fontSize=11;labelBackgroundColor=none;align=right;" edge="1" parent="1" source="2Uv1LT-W6fwnL4_BVbzs-1" target="2Uv1LT-W6fwnL4_BVbzs-2">
          <mxGeometry x="1" y="20" relative="1" as="geometry">
            <mxPoint as="offset" />
          </mxGeometry>
        </mxCell>
        <mxCell id="2Uv1LT-W6fwnL4_BVbzs-63" style="edgeStyle=orthogonalEdgeStyle;rounded=0;orthogonalLoop=1;jettySize=auto;html=1;exitX=0.5;exitY=0;exitDx=0;exitDy=0;entryX=0;entryY=0;entryDx=10;entryDy=0;entryPerimeter=0;dashed=1;fontSize=11;" edge="1" parent="1" source="2Uv1LT-W6fwnL4_BVbzs-1" target="2Uv1LT-W6fwnL4_BVbzs-61">
          <mxGeometry relative="1" as="geometry" />
        </mxCell>
        <mxCell id="2Uv1LT-W6fwnL4_BVbzs-1" value="INITIATING" style="rounded=0;whiteSpace=wrap;html=1;fontSize=11;" vertex="1" parent="1">
          <mxGeometry x="-20" y="160" width="80" height="40" as="geometry" />
        </mxCell>
        <mxCell id="2Uv1LT-W6fwnL4_BVbzs-6" value="Project Plans&lt;br style=&quot;font-size: 11px;&quot;&gt;Risk Register" style="edgeStyle=orthogonalEdgeStyle;rounded=0;orthogonalLoop=1;jettySize=auto;html=1;exitX=0.25;exitY=0;exitDx=0;exitDy=0;entryX=0;entryY=0.25;entryDx=0;entryDy=0;fontSize=11;labelBackgroundColor=none;align=right;" edge="1" parent="1" source="2Uv1LT-W6fwnL4_BVbzs-2" target="2Uv1LT-W6fwnL4_BVbzs-3">
          <mxGeometry x="0.0526" y="10" relative="1" as="geometry">
            <mxPoint as="offset" />
          </mxGeometry>
        </mxCell>
        <mxCell id="2Uv1LT-W6fwnL4_BVbzs-15" value="Project Plans&lt;br style=&quot;font-size: 11px;&quot;&gt;Risk Register" style="edgeStyle=orthogonalEdgeStyle;rounded=0;orthogonalLoop=1;jettySize=auto;html=1;exitX=0.5;exitY=1;exitDx=0;exitDy=0;entryX=0;entryY=0.5;entryDx=0;entryDy=0;fontSize=11;labelBackgroundColor=none;align=right;" edge="1" parent="1" source="2Uv1LT-W6fwnL4_BVbzs-2" target="2Uv1LT-W6fwnL4_BVbzs-4">
          <mxGeometry x="0.9999" y="-20" relative="1" as="geometry">
            <mxPoint as="offset" />
          </mxGeometry>
        </mxCell>
        <mxCell id="2Uv1LT-W6fwnL4_BVbzs-17" value="Project Plans" style="edgeStyle=orthogonalEdgeStyle;rounded=0;orthogonalLoop=1;jettySize=auto;html=1;exitX=0;exitY=0.75;exitDx=0;exitDy=0;entryX=1;entryY=0.75;entryDx=0;entryDy=0;fontSize=11;align=left;" edge="1" parent="1" source="2Uv1LT-W6fwnL4_BVbzs-2" target="2Uv1LT-W6fwnL4_BVbzs-1">
          <mxGeometry x="1" y="10" relative="1" as="geometry">
            <mxPoint as="offset" />
          </mxGeometry>
        </mxCell>
        <mxCell id="2Uv1LT-W6fwnL4_BVbzs-68" style="edgeStyle=orthogonalEdgeStyle;rounded=0;orthogonalLoop=1;jettySize=auto;html=1;exitX=0.5;exitY=0;exitDx=0;exitDy=0;entryX=0;entryY=0;entryDx=10;entryDy=0;entryPerimeter=0;dashed=1;fontSize=11;" edge="1" parent="1" source="2Uv1LT-W6fwnL4_BVbzs-2" target="2Uv1LT-W6fwnL4_BVbzs-64">
          <mxGeometry relative="1" as="geometry" />
        </mxCell>
        <mxCell id="2Uv1LT-W6fwnL4_BVbzs-2" value="PLANNING" style="rounded=0;whiteSpace=wrap;html=1;fontSize=11;" vertex="1" parent="1">
          <mxGeometry x="180" y="160" width="80" height="40" as="geometry" />
        </mxCell>
        <mxCell id="2Uv1LT-W6fwnL4_BVbzs-8" value="Approved &lt;br style=&quot;font-size: 11px;&quot;&gt;Changes" style="edgeStyle=orthogonalEdgeStyle;rounded=0;orthogonalLoop=1;jettySize=auto;html=1;exitX=0;exitY=0.75;exitDx=0;exitDy=0;entryX=0.75;entryY=0;entryDx=0;entryDy=0;fontSize=11;labelBackgroundColor=none;align=left;" edge="1" parent="1" source="2Uv1LT-W6fwnL4_BVbzs-3" target="2Uv1LT-W6fwnL4_BVbzs-2">
          <mxGeometry x="0.6921" y="10" relative="1" as="geometry">
            <mxPoint as="offset" />
          </mxGeometry>
        </mxCell>
        <mxCell id="2Uv1LT-W6fwnL4_BVbzs-9" style="edgeStyle=orthogonalEdgeStyle;rounded=0;orthogonalLoop=1;jettySize=auto;html=1;exitX=1;exitY=0.5;exitDx=0;exitDy=0;entryX=0.5;entryY=0;entryDx=0;entryDy=0;fontSize=11;" edge="1" parent="1" source="2Uv1LT-W6fwnL4_BVbzs-3" target="2Uv1LT-W6fwnL4_BVbzs-5">
          <mxGeometry relative="1" as="geometry" />
        </mxCell>
        <mxCell id="2Uv1LT-W6fwnL4_BVbzs-14" value="Approved Changes&lt;br style=&quot;font-size: 11px;&quot;&gt;Progress Reports" style="edgeStyle=orthogonalEdgeStyle;rounded=0;orthogonalLoop=1;jettySize=auto;html=1;exitX=0.75;exitY=1;exitDx=0;exitDy=0;entryX=0.75;entryY=0;entryDx=0;entryDy=0;fontSize=11;align=left;labelBackgroundColor=none;" edge="1" parent="1" source="2Uv1LT-W6fwnL4_BVbzs-3" target="2Uv1LT-W6fwnL4_BVbzs-4">
          <mxGeometry x="-0.8" relative="1" as="geometry">
            <mxPoint as="offset" />
          </mxGeometry>
        </mxCell>
        <mxCell id="2Uv1LT-W6fwnL4_BVbzs-36" style="edgeStyle=orthogonalEdgeStyle;rounded=0;orthogonalLoop=1;jettySize=auto;html=1;exitX=1;exitY=0.25;exitDx=0;exitDy=0;entryX=0;entryY=0.5;entryDx=0;entryDy=0;entryPerimeter=0;fontSize=11;dashed=1;" edge="1" parent="1" source="2Uv1LT-W6fwnL4_BVbzs-3" target="2Uv1LT-W6fwnL4_BVbzs-25">
          <mxGeometry relative="1" as="geometry">
            <mxPoint x="430" y="100" as="sourcePoint" />
          </mxGeometry>
        </mxCell>
        <mxCell id="2Uv1LT-W6fwnL4_BVbzs-37" style="edgeStyle=orthogonalEdgeStyle;rounded=0;orthogonalLoop=1;jettySize=auto;html=1;exitX=1;exitY=0.25;exitDx=0;exitDy=0;entryX=0;entryY=0.5;entryDx=0;entryDy=0;entryPerimeter=0;dashed=1;fontSize=11;" edge="1" parent="1" source="2Uv1LT-W6fwnL4_BVbzs-3" target="2Uv1LT-W6fwnL4_BVbzs-23">
          <mxGeometry relative="1" as="geometry">
            <mxPoint x="430" y="100" as="sourcePoint" />
          </mxGeometry>
        </mxCell>
        <mxCell id="2Uv1LT-W6fwnL4_BVbzs-38" style="edgeStyle=orthogonalEdgeStyle;rounded=0;orthogonalLoop=1;jettySize=auto;html=1;exitX=1;exitY=0.25;exitDx=0;exitDy=0;entryX=0;entryY=0.5;entryDx=0;entryDy=0;entryPerimeter=0;dashed=1;fontSize=11;" edge="1" parent="1" source="2Uv1LT-W6fwnL4_BVbzs-3" target="2Uv1LT-W6fwnL4_BVbzs-21">
          <mxGeometry relative="1" as="geometry">
            <mxPoint x="430" y="100" as="sourcePoint" />
          </mxGeometry>
        </mxCell>
        <mxCell id="2Uv1LT-W6fwnL4_BVbzs-70" value="Progress Reports&lt;br style=&quot;font-size: 11px;&quot;&gt;Project Completion Reports" style="edgeLabel;html=1;align=left;verticalAlign=middle;resizable=0;points=[];fontSize=11;labelBackgroundColor=none;" vertex="1" connectable="0" parent="2Uv1LT-W6fwnL4_BVbzs-38">
          <mxGeometry x="-0.5099" y="-2" relative="1" as="geometry">
            <mxPoint x="24" y="88" as="offset" />
          </mxGeometry>
        </mxCell>
        <mxCell id="2Uv1LT-W6fwnL4_BVbzs-3" value="CONTROLLING" style="rounded=0;whiteSpace=wrap;html=1;fontSize=11;" vertex="1" parent="1">
          <mxGeometry x="280" y="40" width="100" height="40" as="geometry" />
        </mxCell>
        <mxCell id="2Uv1LT-W6fwnL4_BVbzs-10" value="Issue Log&lt;br style=&quot;font-size: 11px;&quot;&gt;&lt;div style=&quot;font-size: 11px;&quot;&gt;Lessons Learned&lt;/div&gt;" style="edgeStyle=orthogonalEdgeStyle;rounded=0;orthogonalLoop=1;jettySize=auto;html=1;exitX=1;exitY=0.5;exitDx=0;exitDy=0;entryX=0.5;entryY=1;entryDx=0;entryDy=0;fontSize=11;align=left;labelBackgroundColor=none;" edge="1" parent="1" source="2Uv1LT-W6fwnL4_BVbzs-4" target="2Uv1LT-W6fwnL4_BVbzs-5">
          <mxGeometry x="0.7647" y="-10" relative="1" as="geometry">
            <mxPoint as="offset" />
          </mxGeometry>
        </mxCell>
        <mxCell id="2Uv1LT-W6fwnL4_BVbzs-13" value="Change Requests&lt;br style=&quot;font-size: 11px;&quot;&gt;Issue Log&lt;br style=&quot;font-size: 11px;&quot;&gt;Progress Data" style="edgeStyle=orthogonalEdgeStyle;rounded=0;orthogonalLoop=1;jettySize=auto;html=1;exitX=0.25;exitY=0;exitDx=0;exitDy=0;entryX=0.25;entryY=1;entryDx=0;entryDy=0;fontSize=11;align=right;labelBackgroundColor=none;" edge="1" parent="1" source="2Uv1LT-W6fwnL4_BVbzs-4" target="2Uv1LT-W6fwnL4_BVbzs-3">
          <mxGeometry x="-0.8" y="5" relative="1" as="geometry">
            <mxPoint as="offset" />
          </mxGeometry>
        </mxCell>
        <mxCell id="2Uv1LT-W6fwnL4_BVbzs-39" style="edgeStyle=orthogonalEdgeStyle;rounded=0;orthogonalLoop=1;jettySize=auto;html=1;exitX=0.5;exitY=1;exitDx=0;exitDy=0;entryX=0.5;entryY=1;entryDx=0;entryDy=0;entryPerimeter=0;dashed=1;fontSize=11;" edge="1" parent="1" target="2Uv1LT-W6fwnL4_BVbzs-19">
          <mxGeometry relative="1" as="geometry">
            <mxPoint x="330" y="360" as="sourcePoint" />
          </mxGeometry>
        </mxCell>
        <mxCell id="2Uv1LT-W6fwnL4_BVbzs-72" style="edgeStyle=orthogonalEdgeStyle;rounded=0;orthogonalLoop=1;jettySize=auto;html=1;exitX=0.5;exitY=1;exitDx=0;exitDy=0;entryX=0.5;entryY=1;entryDx=0;entryDy=0;entryPerimeter=0;dashed=1;labelBackgroundColor=none;fontSize=11;" edge="1" parent="1" source="2Uv1LT-W6fwnL4_BVbzs-4" target="2Uv1LT-W6fwnL4_BVbzs-19">
          <mxGeometry relative="1" as="geometry" />
        </mxCell>
        <mxCell id="2Uv1LT-W6fwnL4_BVbzs-4" value="IMPLEMENTING" style="rounded=0;whiteSpace=wrap;html=1;fontSize=11;" vertex="1" parent="1">
          <mxGeometry x="280" y="280" width="100" height="40" as="geometry" />
        </mxCell>
        <mxCell id="2Uv1LT-W6fwnL4_BVbzs-35" value="" style="edgeStyle=orthogonalEdgeStyle;rounded=0;orthogonalLoop=1;jettySize=auto;html=1;fontSize=11;entryX=0;entryY=0.5;entryDx=0;entryDy=0;entryPerimeter=0;" edge="1" parent="1" source="2Uv1LT-W6fwnL4_BVbzs-5" target="2Uv1LT-W6fwnL4_BVbzs-28">
          <mxGeometry relative="1" as="geometry" />
        </mxCell>
        <mxCell id="2Uv1LT-W6fwnL4_BVbzs-5" value="CLOSING" style="rounded=0;whiteSpace=wrap;html=1;fontSize=11;" vertex="1" parent="1">
          <mxGeometry x="400" y="160" width="100" height="40" as="geometry" />
        </mxCell>
        <mxCell id="2Uv1LT-W6fwnL4_BVbzs-19" value="" style="shape=note;whiteSpace=wrap;html=1;backgroundOutline=1;darkOpacity=0.05;rotation=0;flipH=1;flipV=0;direction=west;fontSize=11;size=10;" vertex="1" parent="1">
          <mxGeometry x="320" y="360" width="20" height="30" as="geometry" />
        </mxCell>
        <mxCell id="2Uv1LT-W6fwnL4_BVbzs-20" value="Lessons &lt;br style=&quot;font-size: 11px;&quot;&gt;Learned" style="text;html=1;align=center;verticalAlign=middle;resizable=0;points=[];autosize=1;strokeColor=none;fillColor=none;fontSize=11;" vertex="1" parent="1">
          <mxGeometry x="300" y="390" width="60" height="40" as="geometry" />
        </mxCell>
        <mxCell id="2Uv1LT-W6fwnL4_BVbzs-21" value="" style="shape=note;whiteSpace=wrap;html=1;backgroundOutline=1;darkOpacity=0.05;rotation=0;flipH=1;flipV=0;direction=west;fontSize=11;size=10;" vertex="1" parent="1">
          <mxGeometry x="540" y="-35" width="20" height="30" as="geometry" />
        </mxCell>
        <mxCell id="2Uv1LT-W6fwnL4_BVbzs-22" value="Corrective&amp;nbsp;Actions" style="text;html=1;align=left;verticalAlign=middle;resizable=0;points=[];autosize=1;strokeColor=none;fillColor=none;fontSize=11;" vertex="1" parent="1">
          <mxGeometry x="565" y="-35" width="110" height="30" as="geometry" />
        </mxCell>
        <mxCell id="2Uv1LT-W6fwnL4_BVbzs-23" value="" style="shape=note;whiteSpace=wrap;html=1;backgroundOutline=1;darkOpacity=0.05;rotation=0;flipH=1;flipV=0;direction=west;fontSize=11;size=10;" vertex="1" parent="1">
          <mxGeometry x="540" width="20" height="30" as="geometry" />
        </mxCell>
        <mxCell id="2Uv1LT-W6fwnL4_BVbzs-24" value="Progress&amp;nbsp;Reports" style="text;html=1;align=left;verticalAlign=middle;resizable=0;points=[];autosize=1;strokeColor=none;fillColor=none;fontSize=11;" vertex="1" parent="1">
          <mxGeometry x="565" width="110" height="30" as="geometry" />
        </mxCell>
        <mxCell id="2Uv1LT-W6fwnL4_BVbzs-25" value="" style="shape=note;whiteSpace=wrap;html=1;backgroundOutline=1;darkOpacity=0.05;rotation=0;flipH=1;flipV=0;direction=west;fontSize=11;size=10;" vertex="1" parent="1">
          <mxGeometry x="540" y="35" width="20" height="30" as="geometry" />
        </mxCell>
        <mxCell id="2Uv1LT-W6fwnL4_BVbzs-26" value="Approved&amp;nbsp;Changes" style="text;html=1;align=left;verticalAlign=middle;resizable=0;points=[];autosize=1;strokeColor=none;fillColor=none;fontSize=11;" vertex="1" parent="1">
          <mxGeometry x="565" y="35" width="120" height="30" as="geometry" />
        </mxCell>
        <mxCell id="2Uv1LT-W6fwnL4_BVbzs-28" value="" style="shape=note;whiteSpace=wrap;html=1;backgroundOutline=1;darkOpacity=0.05;rotation=0;flipH=1;flipV=0;direction=west;fontSize=11;size=10;" vertex="1" parent="1">
          <mxGeometry x="540" y="165" width="20" height="30" as="geometry" />
        </mxCell>
        <mxCell id="2Uv1LT-W6fwnL4_BVbzs-29" value="Project or Phase&lt;br style=&quot;font-size: 11px;&quot;&gt;Closure Report" style="text;html=1;align=left;verticalAlign=middle;resizable=0;points=[];autosize=1;strokeColor=none;fillColor=none;fontSize=11;" vertex="1" parent="1">
          <mxGeometry x="565" y="160" width="100" height="40" as="geometry" />
        </mxCell>
        <mxCell id="2Uv1LT-W6fwnL4_BVbzs-42" style="edgeStyle=orthogonalEdgeStyle;rounded=0;orthogonalLoop=1;jettySize=auto;html=1;exitX=0.5;exitY=1;exitDx=0;exitDy=0;exitPerimeter=0;entryX=0.25;entryY=1;entryDx=0;entryDy=0;dashed=1;fontSize=11;" edge="1" parent="1" source="2Uv1LT-W6fwnL4_BVbzs-40" target="2Uv1LT-W6fwnL4_BVbzs-2">
          <mxGeometry relative="1" as="geometry" />
        </mxCell>
        <mxCell id="2Uv1LT-W6fwnL4_BVbzs-40" value="" style="shape=note;whiteSpace=wrap;html=1;backgroundOutline=1;darkOpacity=0.05;rotation=0;flipH=1;flipV=0;direction=west;fontSize=11;size=10;" vertex="1" parent="1">
          <mxGeometry x="190" y="360" width="20" height="30" as="geometry" />
        </mxCell>
        <mxCell id="2Uv1LT-W6fwnL4_BVbzs-41" value="Lessons Learned&amp;nbsp;from &lt;br style=&quot;font-size: 11px;&quot;&gt;Previous Projects" style="text;html=1;align=center;verticalAlign=middle;resizable=0;points=[];autosize=1;strokeColor=none;fillColor=none;fontSize=11;" vertex="1" parent="1">
          <mxGeometry x="135" y="390" width="130" height="40" as="geometry" />
        </mxCell>
        <mxCell id="2Uv1LT-W6fwnL4_BVbzs-43" value="" style="shape=note;whiteSpace=wrap;html=1;backgroundOutline=1;darkOpacity=0.05;rotation=0;flipH=1;flipV=0;direction=west;fontSize=11;size=10;" vertex="1" parent="1">
          <mxGeometry x="-70" y="235" width="20" height="30" as="geometry" />
        </mxCell>
        <mxCell id="2Uv1LT-W6fwnL4_BVbzs-44" value="Previous &lt;br style=&quot;font-size: 11px;&quot;&gt;Phase &lt;br style=&quot;font-size: 11px;&quot;&gt;Results" style="text;html=1;align=right;verticalAlign=middle;resizable=0;points=[];autosize=1;strokeColor=none;fillColor=none;fontSize=11;" vertex="1" parent="1">
          <mxGeometry x="-150" y="225" width="70" height="50" as="geometry" />
        </mxCell>
        <mxCell id="2Uv1LT-W6fwnL4_BVbzs-45" value="" style="shape=note;whiteSpace=wrap;html=1;backgroundOutline=1;darkOpacity=0.05;rotation=0;flipH=1;flipV=0;direction=west;fontSize=11;size=10;" vertex="1" parent="1">
          <mxGeometry x="-70" y="100" width="20" height="30" as="geometry" />
        </mxCell>
        <mxCell id="2Uv1LT-W6fwnL4_BVbzs-46" value="Statement &lt;br style=&quot;font-size: 11px;&quot;&gt;of &lt;br style=&quot;font-size: 11px;&quot;&gt;Work" style="text;html=1;align=right;verticalAlign=middle;resizable=0;points=[];autosize=1;strokeColor=none;fillColor=none;fontSize=11;" vertex="1" parent="1">
          <mxGeometry x="-150" y="90" width="70" height="50" as="geometry" />
        </mxCell>
        <mxCell id="2Uv1LT-W6fwnL4_BVbzs-47" value="" style="shape=note;whiteSpace=wrap;html=1;backgroundOutline=1;darkOpacity=0.05;rotation=0;flipH=1;flipV=0;direction=west;fontSize=11;size=10;" vertex="1" parent="1">
          <mxGeometry x="-70" y="60" width="20" height="30" as="geometry" />
        </mxCell>
        <mxCell id="2Uv1LT-W6fwnL4_BVbzs-48" value="Contract" style="text;html=1;align=right;verticalAlign=middle;resizable=0;points=[];autosize=1;strokeColor=none;fillColor=none;fontSize=11;" vertex="1" parent="1">
          <mxGeometry x="-150" y="60" width="70" height="30" as="geometry" />
        </mxCell>
        <mxCell id="2Uv1LT-W6fwnL4_BVbzs-53" value="" style="shape=note;whiteSpace=wrap;html=1;backgroundOutline=1;darkOpacity=0.05;rotation=0;flipH=1;flipV=0;direction=west;fontSize=11;size=10;" vertex="1" parent="1">
          <mxGeometry x="-70" y="20" width="20" height="30" as="geometry" />
        </mxCell>
        <mxCell id="2Uv1LT-W6fwnL4_BVbzs-54" value="Business &lt;br style=&quot;font-size: 11px;&quot;&gt;Case" style="text;html=1;align=right;verticalAlign=middle;resizable=0;points=[];autosize=1;strokeColor=none;fillColor=none;fontSize=11;" vertex="1" parent="1">
          <mxGeometry x="-150" y="15" width="70" height="40" as="geometry" />
        </mxCell>
        <mxCell id="2Uv1LT-W6fwnL4_BVbzs-61" value="" style="shape=note;whiteSpace=wrap;html=1;backgroundOutline=1;darkOpacity=0.05;rotation=0;flipH=1;flipV=0;direction=west;fontSize=11;size=10;" vertex="1" parent="1">
          <mxGeometry x="10" y="-15" width="20" height="30" as="geometry" />
        </mxCell>
        <mxCell id="2Uv1LT-W6fwnL4_BVbzs-62" value="Project Charter" style="text;html=1;align=center;verticalAlign=middle;resizable=0;points=[];autosize=1;strokeColor=none;fillColor=none;fontSize=11;" vertex="1" parent="1">
          <mxGeometry x="-30" y="-45" width="100" height="30" as="geometry" />
        </mxCell>
        <mxCell id="2Uv1LT-W6fwnL4_BVbzs-64" value="" style="shape=note;whiteSpace=wrap;html=1;backgroundOutline=1;darkOpacity=0.05;rotation=0;flipH=1;flipV=0;direction=west;fontSize=11;size=10;" vertex="1" parent="1">
          <mxGeometry x="210" y="-15" width="20" height="30" as="geometry" />
        </mxCell>
        <mxCell id="2Uv1LT-W6fwnL4_BVbzs-65" value="Project Plans" style="text;html=1;align=center;verticalAlign=middle;resizable=0;points=[];autosize=1;strokeColor=none;fillColor=none;fontSize=11;" vertex="1" parent="1">
          <mxGeometry x="175" y="-45" width="90" height="30" as="geometry" />
        </mxCell>
      </root>
    </mxGraphModel>
  </diagram>
</mxfile>
